inDegrees=yes
name=ik_coleta2_mov
DataType=double
version=3
OpenSimVersion=4.4-2022-07-23-0e9fedc
endheader
time	pelvis_tilt	pelvis_list	pelvis_rotation	pelvis_tx	pelvis_ty	pelvis_tz	hip_flexion_r	hip_adduction_r	hip_rotation_r	knee_angle_r	knee_angle_r_beta	ankle_angle_r	subtalar_angle_r	mtp_angle_r	hip_flexion_l	hip_adduction_l	hip_rotation_l	knee_angle_l	knee_angle_l_beta	ankle_angle_l	subtalar_angle_l	mtp_angle_l	lumbar_extension	lumbar_bending	lumbar_rotation	arm_flex_r	arm_add_r	arm_rot_r	elbow_flex_r	pro_sup_r	wrist_flex_r	wrist_dev_r	arm_flex_l	arm_add_l	arm_rot_l	elbow_flex_l	pro_sup_l	wrist_flex_l	wrist_dev_l
10.9759669303894	89.99999999999901	0	0	0	0.93	0	-69.45883851202584	0.5949814136407319	1.451242540656194	0.01342783326099049	0.0002343599018130912	0	0	0	44.76568669512329	0	0	0	0	0	0	0	0	0	0	0	0	0	3.367543257179381e-37	0	0	0	0	0	0	3.367543257179381e-37	1.53269301937013e-37	0	0
10.99697303771973	89.99999999999901	0	0	0	0.93	0	-67.67411274134678	0.8400229115830719	1.563236372802287	0.009546649728250711	0.0001666204702925968	0	0	0	44.76584580826644	0	0	0	0	0	0	0	0	0	0	0	0	0	0	0	0	0	0	0	0	0	0	0	0
11.00394916534424	89.99999999999901	1.993585608250194e-34	0	0	0.93	0	-67.0907949248041	0.7243212601735052	1.661095989354424	0.008737358912236811	0.0001524956809470026	0	0	0	44.76613318959326	0	0	3.03826064839263e-45	-4.497928911496404e-48	0	0	0	0	0	0	0	0	0	3.175472419610362e-45	3.105218504435609e-45	0	0	0	0	0	3.175472419610362e-45	3.105218504435609e-45	0	0
11.01595592498779	89.99999999999901	0	0	0	0.93	0	-66.37700832729406	0.7318113747006373	1.703310211888708	0.007890743972938539	0.0001377194627596758	0	0	0	44.76616360808612	0	0	0	-6.241943879488465e-41	0	0	0	0	0	0	0	0	0	0	0	0	0	0	0	0	0	0	0	0
11.02295613288879	89.99999999999901	0	0	0	0.93	0	-65.89726059284193	0.769612254459737	1.660119058689425	0.00740298127298958	0.0001292063976771493	0	0	0	44.76641777079198	0	0	0	0	0	0	0	0	0	0	0	0	0	0	0	0	0	0	0	0	0	0	0	0
11.03195691108704	89.99999999999901	0	0	0	0.93	0	-64.51432370773803	1.202337407412642	1.558965885729052	0.006280675514579191	0.000109618466978796	0	0	0	44.76662244250713	0	0	0	0	0	0	0	0	0	0	0	0	0	0	0	0	0	0	0	0	0	0	0	0
11.04392910003662	89.99999999999901	0	0	0	0.93	0	-63.80698886892959	1.395147468135224	1.61240273486737	0.005855484479398563	0.000102197483464931	0	0	0	44.76682326442992	0	0	0	0	0	0	0	0	0	0	0	0	0	0	0	0	0	0	0	0	0	0	0	0
11.05097079277039	89.99999999999901	-5.17254644302753e-34	5.253367481199835e-34	0	0.93	0	-63.45525298017643	1.485307869625124	1.679054333856636	0.005659589849615717	9.8778477188245e-05	0	0	0	44.7672013569188	0	0	5.684487664734599e-46	4.105366594701613e-48	0	0	0	0	0	0	0	0	0	6.664571744861254e-46	8.232706273063902e-46	0	0	0	0	0	6.664571744861254e-46	8.232706273063902e-46	0	0
11.05795407295227	89.99999999999901	0	0	0	0.93	0	-62.26134578966882	1.761593714047	1.813688600984857	0.00509484428247726	8.892180760563623e-05	0	0	0	44.76735749458376	0	0	0	0	0	0	0	0	0	0	0	0	0	0	0	0	0	0	0	0	0	0	0	0
11.07797288894653	89.99999999999901	-4.841218756062781e-22	-6.9925254008603e-27	-2.541116613221374e-23	0.93	1.607911327958214e-22	-61.71866475022186	1.771347178645069	1.868745284417193	0.004862074790943067	8.48592135801715e-05	1.18135334109821e-15	1.113463184787386e-15	-3.595574471146873e-16	44.76739157428142	7.460778341316361e-26	-1.055070963319192e-21	3.834454484099662e-15	6.692385585217182e-17	-9.461667780007489e-16	-2.149692400585281e-15	6.045041497944219e-16	0	-2.54950798449016e-22	-1.264524853196165e-25	6.915452753384419e-24	-2.138460728781124e-16	-2.238506769490397e-15	3.834454457679475e-15	3.834454476548068e-15	1.238056073012943e-19	-5.35810911043763e-21	-1.967253605757535e-15	5.168389174533367e-16	3.908539032213506e-16	3.834455455684339e-15	3.834454509937502e-15	5.058194220004731e-21	5.414389435555903e-21
11.0969569683075	89.99999999999901	4.429155451725271e-41	1.562540071331233e-34	0	0.93	-2.478901992663252e-52	-61.53954922433395	1.750553766650677	1.859750115062157	0.004789119223443779	8.358589871964794e-05	0	7.082638860290279e-49	0	44.76787042832623	0	-9.412986297445492e-57	0	8.228246004542278e-39	0	0	0	-6.370546520823258e-47	1.760318076635092e-47	0	5.780771124766242e-42	2.694034605743505e-36	1.875383436801584e-36	3.367543257179381e-37	3.399414791716491e-37	0	0	3.350496485696562e-36	0	8.500243384877772e-47	1.441475474384689e-37	3.399414791716491e-37	-9.930985785814008e-54	0
11.10195994377136	89.99999999999901	0	-6.735086514358763e-35	0	0.93	0	-61.25254333912062	1.709844575469099	1.879707447043875	0.004897759805382406	8.548203457575967e-05	0	-4.423999870155806e-83	0	44.76826020700153	0	0	9.483004624650925e-46	-8.210733189403225e-48	0	0	0	-5.662719833799431e-81	0	0	0	-6.485652398021097e-71	2.594260959208439e-70	0	0	0	-1.912696720005198e-65	0	0	1.887573277933144e-80	0	0	9.000650777497977e-88	-1.912696720005198e-65
11.10793709754944	89.99999999999901	0	0	0	0.93	0	-61.09255139094681	1.694935606666041	1.884320944396239	0.004832200765712488	8.433781347907404e-05	0	0	0	44.76864749427519	0	0	0	0	0	0	0	0	0	0	0	0	0	0	0	0	0	0	0	0	0	0	0	0
11.1149480342865	89.99999999999901	0	0	0	0.93	0	-60.33067277629724	1.705359878548587	1.907756573047086	0.005144641920491783	8.979094034870594e-05	0	0	0	44.7688954017522	0	0	0	-1.556393740450518e-41	0	0	0	0	0	0	0	0	0	1.443908165386057e-39	1.052357267868557e-38	0	0	0	0	0	1.443908165386057e-39	1.052357267868557e-38	0	0
11.11995005607605	89.99999999999901	-3.448364295351686e-34	-4.310455369189608e-35	0	0.93	1.127572612070145e-50	-60.18669642402423	1.734578254832949	1.88148055635768	0.005078707441862802	8.86401666060444e-05	0	0	0	44.76929013350865	9.496736420474409e-62	0	0	0	-9.647263336969055e-37	-2.208928740031138e-48	3.215900887915587e-48	0	0	0	0	-1.032882492257122e-37	0	0	0	0	4.438129135610833e-38	-4.110770577611549e-41	-6.040364680972653e-37	-2.429053464811158e-36	0	0	0	-3.587678196442768e-39
11.12395191192627	89.99999999999901	0	0	0	0.93	0	-59.58740155825303	1.82242817057502	1.967912846749293	0.005336177810525432	9.31338722655309e-05	0	0	0	44.76958676609793	0	0	0	-3.673419846319648e-40	0	0	0	0	0	0	0	0	0	0	0	0	0	0	0	0	0	0	0	0
11.13094806671143	89.99999999999901	1.034509288605506e-33	-1.724182147675843e-34	1.539512473013105e-48	0.93	0	-56.1375110391689	2.614683182923363	2.199089106088552	0.007650896298995103	0.0001335333311461131	4.008974811086369e-37	-2.430916112685787e-42	0	44.76977845561724	-1.347017302871753e-36	0	8.418858142948453e-38	1.85623336074701e-39	0	-1.129056860305907e-44	8.52506654425728e-37	0	0	0	0	0	0	1.497057388028097e-37	0	1.684519512717688e-48	0	0	5.098692675283798e-36	1.65518731848165e-36	0	2.340630213993459e-39	-5.302439097439535e-38	0
11.13793301582336	89.99999999999901	0	-1.724195302141692e-34	0	0.93	0	-56.03170068729334	2.635314078729725	2.147108869329094	0.007534873475524614	0.0001315083508690929	0	0	0	44.77006185113888	0	0	0	0	0	0	0	0	0	0	0	0	0	0	0	0	0	0	0	0	0	0	0	0
11.1439380645752	89.99999999999901	0	0	0	0.93	0	-55.34496068348518	2.839584930313911	2.128510364195155	0.008257308088334645	0.0001441172134929983	0	0	0	44.77030744385535	0	0	0	0	0	0	0	0	0	0	0	0	0	1.140489815524126e-39	0	0	0	0	0	0	0	0	0	0
11.1479549407959	89.99999999999901	2.586273221513765e-34	-1.784797926305072e-35	0	0.93	0	-55.26850236038386	2.834977030197924	2.097538460510137	0.00816450083848176	0.0001424974214133445	0	0	0	44.77058172983022	0	0	0	-2.6952088210751e-48	0	0	0	0	0	0	0	0	0	0	7.84067264101324e-47	0	0	0	0	0	0	7.84067264101324e-47	0	0
11.15395092964172	89.99999999999901	0	-2.155227684594804e-35	0	0.93	0	-54.11209071519016	3.113314628303245	2.195930212028473	0.009644077688308082	0.0001683209089790995	0	0	0	44.77073502783516	0	0	2.104714535737113e-38	0	0	3.03826064839263e-45	1.034837710698745e-36	0	0	0	0	0	0	0	0	0	-1.185312729845916e-50	0	0	0	0	2.946600350031959e-37	-6.939071856365477e-50	7.052252971340145e-36
11.15995287895203	89.99999999999901	1.796890784702219e-24	-9.439659718295593e-24	3.766064639682633e-18	0.93	-3.209055102776427e-20	-54.05956845379422	3.107216416654508	2.157017034135134	0.009542371125529768	0.0001665457945877316	2.279469421650561e-14	-2.040101040841562e-16	-7.325774025621532e-17	44.77093823081959	1.596332509607422e-20	4.215183384910861e-17	1.603129043577675e-14	2.482451374127436e-16	1.586118618266839e-15	3.044579081566194e-17	-1.944700094793386e-17	8.65537947287143e-15	-7.364357164122126e-15	1.000332189064267e-14	-8.427856127113712e-15	-1.68025488676471e-14	-4.386484154860594e-15	1.603128740854514e-14	1.603110318945582e-14	-1.293243091655019e-19	-2.376588149286813e-16	-1.810249478219757e-15	1.296052823955222e-15	3.911017099346728e-15	1.603130112377198e-14	1.60314424347159e-14	2.705792114677006e-19	-7.463599663486003e-17
11.16894388198853	90.00000000000145	-3.774379508391974e-12	7.615991548018141e-12	-9.853958407368631e-15	0.93	2.688882935495812e-15	-54.03829885499284	3.100803580578502	2.120183850430076	0.009486278059508548	0.0001655667858897654	-1.819292672871295e-13	1.479453616021742e-13	-2.010217623057871e-12	44.77115103460294	8.079000458894159e-23	-1.460501611713554e-17	1.216741894942196e-05	2.123615253792909e-07	1.190801086899817e-13	1.082974662966737e-13	-4.339806473096541e-13	2.280516088107055e-14	6.904853428277413e-14	2.052463571505893e-14	2.750540371525129e-14	6.851141971777679e-14	-1.155421383748517e-14	1.356882260628195e-05	1.416857252383888e-05	-5.418279963670288e-13	4.552022055154108e-12	-1.747242691769767e-14	3.374973005169008e-14	-2.114014275569049e-13	1.416835128198275e-05	1.416857257698445e-05	5.366064568618622e-15	4.667523561366785e-13
